<svg width="24" height="24" viewBox="0 0 24 24" fill="none" xmlns="http://www.w3.org/2000/svg">
  <path d="M11.214.006c-.052.005-.216.022-.364.033C7.442.347 4.25 2.186 2.226 5.013a11.88 11.88 0 0 0-2.118 5.243c-.096.66-.108.854-.108 1.748s.012 1.089.108 1.748c.652 4.507 3.86 8.293 8.209 9.696.779.251 1.6.422 2.533.526.364.04 1.935.04 2.299 0 1.611-.179 2.977-.577 4.323-1.265.207-.106.246-.134.218-.157-.02-.014-.899-1.194-1.955-2.62l-1.919-2.593-2.404-3.559a342.499 342.499 0 0 0-2.422-3.556c-.009-.003-.018 1.578-.023 3.51-.007 3.38-.01 3.516-.052 3.596a.426.426 0 0 1-.206.213c-.075.038-.141.045-.495.045H8.81l-.108-.068a.44.44 0 0 1-.157-.172l-.05-.105.005-4.704.007-4.705.073-.092a.644.644 0 0 1 .174-.143c.096-.047.133-.051.54-.051.478 0 .558.018.682.154.035.038 1.337 2 2.895 4.362l4.734 7.172 1.9 2.878.097-.063a12.318 12.318 0 0 0 2.465-2.163 11.947 11.947 0 0 0 2.825-6.135c.096-.66.108-.854.108-1.748s-.012-1.088-.108-1.748C23.24 5.75 20.032 1.963 15.683.56A12.6 12.6 0 0 0 13.226.06c-.251-.026-1.786-.045-2.012-.054" fill="currentColor"/>
  <path d="M14.912 7.282v.455l.918 1.377 2.802 4.203a350.79 350.79 0 0 1 1.89 2.84l.017-.027a11.732 11.732 0 0 0 1.61-3.977c.097-.663.108-.854.108-1.748 0-.892-.012-1.082-.108-1.75a11.87 11.87 0 0 0-1.578-3.87c-.378-.64-.744-1.148-1.2-1.668L14.912 7.282" fill="currentColor"/>
</svg>

